# This file uses centimeters as units for non-parametric coordinates.

mtllib Alacena.mtl
g default
v 0.758271 5.522369 3.976918
v 0.856049 5.522369 3.976918
v 0.758271 5.922369 3.976918
v 0.856049 5.922369 3.976918
v 0.758271 5.922369 3.924449
v 0.856049 5.922369 3.924449
v 0.758271 5.522369 3.924449
v 0.856049 5.522369 3.924449
v -0.863923 5.522369 3.976918
v -0.766146 5.522369 3.976918
v -0.863923 5.922369 3.976918
v -0.766146 5.922369 3.976918
v -0.863923 5.922369 3.924449
v -0.766146 5.922369 3.924449
v -0.863923 5.522369 3.924449
v -0.766146 5.522369 3.924449
v -1.337530 5.522369 3.976918
v -1.239752 5.522369 3.976918
v -1.337530 5.922369 3.976918
v -1.239752 5.922369 3.976918
v -1.337530 5.922369 3.924449
v -1.239752 5.922369 3.924449
v -1.337530 5.522369 3.924449
v -1.239752 5.522369 3.924449
v 1.231878 5.522369 3.976918
v 1.329655 5.522369 3.976918
v 1.231878 5.922369 3.976918
v 1.329655 5.922369 3.976918
v 1.231878 5.922369 3.924449
v 1.329655 5.922369 3.924449
v 1.231878 5.522369 3.924449
v 1.329655 5.522369 3.924449
v -2.010759 4.966470 5.963706
v -0.056833 4.966470 5.963706
v -2.010759 6.959179 5.963706
v -0.056833 6.959179 5.963706
v -2.010759 6.959179 4.085311
v -0.056833 6.959179 4.085311
v -2.010759 4.966470 4.085311
v -0.056833 4.966470 4.085311
v -1.047963 6.959179 4.085311
v -1.047963 4.966470 4.085311
v -1.047963 4.966470 5.963706
v -1.047963 6.959179 5.963706
v -0.982666 6.959178 3.977547
v -0.056834 6.959178 3.977547
v -0.056834 4.966470 3.977547
v -0.982666 4.966470 3.977547
v -2.010758 6.959178 3.978848
v -1.116011 6.959178 3.978848
v -1.116011 4.966471 3.978848
v -2.010758 4.966471 3.978848
v 0.082904 4.966470 5.963706
v 2.036830 4.966470 5.963706
v 0.082904 6.959179 5.963706
v 2.036830 6.959179 5.963706
v 0.082904 6.959179 4.085311
v 2.036830 6.959179 4.085311
v 0.082904 4.966470 4.085311
v 2.036830 4.966470 4.085311
v 1.045700 6.959179 4.085311
v 1.045700 4.966470 4.085311
v 1.045700 4.966470 5.963706
v 1.045700 6.959179 5.963706
v 1.110997 6.959178 3.977547
v 2.036829 6.959178 3.977547
v 2.036829 4.966470 3.977547
v 1.110997 4.966470 3.977547
v 0.082905 6.959178 3.978848
v 0.977651 6.959178 3.978848
v 0.977651 4.966471 3.978848
v 0.082905 4.966471 3.978848
vt 0.161798 0.752450
vt 0.168285 0.752450
vt 0.168285 0.801904
vt 0.161798 0.801904
vt 0.149494 0.752450
vt 0.155981 0.752450
vt 0.155981 0.801904
vt 0.149494 0.801904
vt 0.101378 0.752450
vt 0.107865 0.752450
vt 0.107865 0.801904
vt 0.101378 0.801904
vt 0.089074 0.752450
vt 0.095561 0.752450
vt 0.095561 0.801904
vt 0.089074 0.801904
vt 0.040958 0.752450
vt 0.047445 0.752450
vt 0.047445 0.801904
vt 0.040958 0.801904
vt 0.028654 0.752450
vt 0.035141 0.752450
vt 0.035141 0.801904
vt 0.028654 0.801904
vt 0.020553 0.805688
vt 0.027040 0.805688
vt 0.027040 0.855142
vt 0.020553 0.855142
vt 0.033488 0.805688
vt 0.039975 0.805688
vt 0.039975 0.855142
vt 0.033488 0.855142
vt 0.497314 0.001992
vt 0.729549 0.001992
vt 0.729549 0.248360
vt 0.497314 0.248360
vt 0.742872 0.001992
vt 0.742872 0.248360
vt 0.714033 0.252145
vt 0.946268 0.252145
vt 0.946268 0.498513
vt 0.714033 0.498513
vt 0.700871 0.498513
vt 0.700871 0.252145
vt 0.001889 0.502297
vt 0.234124 0.502297
vt 0.234124 0.748665
vt 0.001889 0.748665
vt 0.247447 0.502297
vt 0.247447 0.748665
vt 0.266552 0.502297
vt 0.498787 0.502297
vt 0.498787 0.748665
vt 0.266552 0.748665
vt 0.253390 0.748665
vt 0.253390 0.502297
vt 0.046423 0.817777
vt 0.046423 0.805688
vt 0.052910 0.805688
vt 0.052910 0.817777
vt 0.059359 0.817777
vt 0.059359 0.805688
vt 0.065846 0.805688
vt 0.065846 0.817777
vt 0.072294 0.817777
vt 0.072294 0.805688
vt 0.078781 0.805688
vt 0.078781 0.817777
vt 0.085230 0.817777
vt 0.085230 0.805688
vt 0.091717 0.805688
vt 0.091717 0.817777
vt 0.098165 0.817777
vt 0.098165 0.805688
vt 0.104652 0.805688
vt 0.104652 0.817777
vt 0.111100 0.817777
vt 0.111100 0.805688
vt 0.117587 0.805688
vt 0.117587 0.817777
vt 0.124036 0.817777
vt 0.124036 0.805688
vt 0.130523 0.805688
vt 0.130523 0.817777
vt 0.136971 0.817777
vt 0.136971 0.805688
vt 0.143458 0.805688
vt 0.143458 0.817777
vt 0.504706 0.502297
vt 0.623741 0.502297
vt 0.623741 0.734532
vt 0.504706 0.734532
vt 0.746279 0.502297
vt 0.746279 0.734532
vt 0.615328 0.747695
vt 0.504706 0.747695
vt 0.746279 0.747855
vt 0.631814 0.747855
vt 0.704695 0.764963
vt 0.823730 0.764963
vt 0.823730 0.997198
vt 0.704695 0.997198
vt 0.704695 0.751801
vt 0.815317 0.751801
vt 0.946268 0.764963
vt 0.946268 0.997198
vt 0.831803 0.751640
vt 0.946268 0.751640
vt 0.457305 0.752450
vt 0.576340 0.752450
vt 0.576340 0.984685
vt 0.457305 0.984685
vt 0.698878 0.752450
vt 0.698878 0.984685
vt 0.567927 0.997847
vt 0.457305 0.997847
vt 0.698878 0.998008
vt 0.584413 0.998008
vt 0.209914 0.765773
vt 0.328949 0.765773
vt 0.328949 0.998008
vt 0.209914 0.998008
vt 0.209915 0.752611
vt 0.320536 0.752611
vt 0.451488 0.765773
vt 0.451488 0.998008
vt 0.337022 0.752450
vt 0.451487 0.752450
vt 0.192008 0.752450
vt 0.204097 0.752450
vt 0.204097 0.801904
vt 0.192008 0.801904
vt 0.174103 0.752450
vt 0.186191 0.752450
vt 0.186191 0.801904
vt 0.174103 0.801904
vt 0.131588 0.752450
vt 0.143677 0.752450
vt 0.143677 0.801904
vt 0.131588 0.801904
vt 0.113682 0.752450
vt 0.125771 0.752450
vt 0.125771 0.801904
vt 0.113682 0.801904
vt 0.071168 0.752450
vt 0.083257 0.752450
vt 0.083257 0.801904
vt 0.071168 0.801904
vt 0.053262 0.752450
vt 0.065351 0.752450
vt 0.065351 0.801904
vt 0.053262 0.801904
vt 0.010748 0.752450
vt 0.022837 0.752450
vt 0.022837 0.801904
vt 0.010748 0.801904
vt 0.001889 0.805688
vt 0.013977 0.805688
vt 0.013977 0.855142
vt 0.001889 0.855142
vt 0.001889 0.001992
vt 0.120924 0.001992
vt 0.120924 0.248360
vt 0.001889 0.248360
vt 0.243462 0.001992
vt 0.243462 0.248360
vt 0.249694 0.001992
vt 0.360316 0.001992
vt 0.360316 0.248360
vt 0.249694 0.248360
vt 0.368729 0.001992
vt 0.368729 0.248360
vt 0.376802 0.001992
vt 0.376802 0.248360
vt 0.491267 0.001992
vt 0.491267 0.248360
vt 0.453481 0.252145
vt 0.572515 0.252145
vt 0.572515 0.498513
vt 0.453481 0.498513
vt 0.695054 0.252145
vt 0.695054 0.498513
vt 0.206090 0.252145
vt 0.316712 0.252145
vt 0.316712 0.498512
vt 0.206090 0.498512
vt 0.325125 0.252145
vt 0.325125 0.498513
vt 0.333198 0.252145
vt 0.333198 0.498513
vt 0.447663 0.252145
vt 0.447663 0.498513
vn 0.000000 0.000000 1.000000
vn 0.000000 0.000000 1.000000
vn 0.000000 0.000000 1.000000
vn 0.000000 0.000000 1.000000
vn 0.000000 1.000000 0.000000
vn 0.000000 1.000000 0.000000
vn 0.000000 1.000000 0.000000
vn 0.000000 1.000000 0.000000
vn 0.000000 0.000000 -1.000000
vn 0.000000 0.000000 -1.000000
vn 0.000000 0.000000 -1.000000
vn 0.000000 0.000000 -1.000000
vn 0.000000 -1.000000 0.000000
vn 0.000000 -1.000000 0.000000
vn 0.000000 -1.000000 0.000000
vn 0.000000 -1.000000 0.000000
vn 1.000000 0.000000 0.000000
vn 1.000000 0.000000 0.000000
vn 1.000000 0.000000 0.000000
vn 1.000000 0.000000 0.000000
vn -1.000000 0.000000 0.000000
vn -1.000000 0.000000 0.000000
vn -1.000000 0.000000 0.000000
vn -1.000000 0.000000 0.000000
vn 0.000000 0.000000 1.000000
vn 0.000000 0.000000 1.000000
vn 0.000000 0.000000 1.000000
vn 0.000000 0.000000 1.000000
vn 0.000000 1.000000 0.000000
vn 0.000000 1.000000 0.000000
vn 0.000000 1.000000 0.000000
vn 0.000000 1.000000 0.000000
vn 0.000000 0.000000 -1.000000
vn 0.000000 0.000000 -1.000000
vn 0.000000 0.000000 -1.000000
vn 0.000000 0.000000 -1.000000
vn 0.000000 -1.000000 0.000000
vn 0.000000 -1.000000 0.000000
vn 0.000000 -1.000000 0.000000
vn 0.000000 -1.000000 0.000000
vn 1.000000 0.000000 0.000000
vn 1.000000 0.000000 0.000000
vn 1.000000 0.000000 0.000000
vn 1.000000 0.000000 0.000000
vn -1.000000 0.000000 0.000000
vn -1.000000 0.000000 0.000000
vn -1.000000 0.000000 0.000000
vn -1.000000 0.000000 0.000000
vn 0.000000 0.000000 1.000000
vn 0.000000 0.000000 1.000000
vn 0.000000 0.000000 1.000000
vn 0.000000 0.000000 1.000000
vn 0.000000 1.000000 0.000000
vn 0.000000 1.000000 0.000000
vn 0.000000 1.000000 0.000000
vn 0.000000 1.000000 0.000000
vn 0.000000 0.000000 -1.000000
vn 0.000000 0.000000 -1.000000
vn 0.000000 0.000000 -1.000000
vn 0.000000 0.000000 -1.000000
vn 0.000000 -1.000000 0.000000
vn 0.000000 -1.000000 0.000000
vn 0.000000 -1.000000 0.000000
vn 0.000000 -1.000000 0.000000
vn 1.000000 0.000000 0.000000
vn 1.000000 0.000000 0.000000
vn 1.000000 0.000000 0.000000
vn 1.000000 0.000000 0.000000
vn -1.000000 0.000000 0.000000
vn -1.000000 0.000000 0.000000
vn -1.000000 0.000000 0.000000
vn -1.000000 0.000000 0.000000
vn 0.000000 0.000000 1.000000
vn 0.000000 0.000000 1.000000
vn 0.000000 0.000000 1.000000
vn 0.000000 0.000000 1.000000
vn 0.000000 1.000000 0.000000
vn 0.000000 1.000000 0.000000
vn 0.000000 1.000000 0.000000
vn 0.000000 1.000000 0.000000
vn 0.000000 0.000000 -1.000000
vn 0.000000 0.000000 -1.000000
vn 0.000000 0.000000 -1.000000
vn 0.000000 0.000000 -1.000000
vn 0.000000 -1.000000 0.000000
vn 0.000000 -1.000000 0.000000
vn 0.000000 -1.000000 0.000000
vn 0.000000 -1.000000 0.000000
vn 1.000000 0.000000 0.000000
vn 1.000000 0.000000 0.000000
vn 1.000000 0.000000 0.000000
vn 1.000000 0.000000 0.000000
vn -1.000000 0.000000 0.000000
vn -1.000000 0.000000 0.000000
vn -1.000000 0.000000 0.000000
vn -1.000000 0.000000 0.000000
vn 0.000000 0.000000 1.000000
vn 0.000000 0.000000 1.000000
vn 0.000000 0.000000 1.000000
vn 0.000000 0.000000 1.000000
vn 0.000000 1.000000 0.000000
vn 0.000000 1.000000 0.000000
vn 0.000000 1.000000 0.000000
vn 0.000000 1.000000 0.000000
vn 0.000000 0.000000 -1.000000
vn 0.000000 0.000000 -1.000000
vn 0.000000 0.000000 -1.000000
vn 0.000000 0.000000 -1.000000
vn 0.000000 -1.000000 0.000000
vn 0.000000 -1.000000 0.000000
vn 0.000000 -1.000000 0.000000
vn 0.000000 -1.000000 0.000000
vn 1.000000 0.000000 0.000000
vn 1.000000 0.000000 0.000000
vn 1.000000 0.000000 0.000000
vn 1.000000 0.000000 0.000000
vn -1.000000 0.000000 0.000000
vn -1.000000 0.000000 0.000000
vn -1.000000 0.000000 0.000000
vn -1.000000 0.000000 0.000000
vn 0.000000 0.000000 -1.000000
vn 0.000000 0.000000 -1.000000
vn 0.000000 0.000000 -1.000000
vn 0.000000 0.000000 -1.000000
vn 0.000000 -1.000000 0.000000
vn 0.000000 -1.000000 0.000000
vn 0.000000 -1.000000 0.000000
vn 0.000000 -1.000000 0.000000
vn 0.000000 0.000000 1.000000
vn 0.000000 0.000000 1.000000
vn 0.000000 0.000000 1.000000
vn 0.000000 0.000000 1.000000
vn 0.000000 1.000000 0.000000
vn 0.000000 1.000000 0.000000
vn 0.000000 1.000000 0.000000
vn 0.000000 1.000000 0.000000
vn 0.000000 1.000000 -0.000004
vn 0.000000 1.000000 -0.000004
vn 0.000000 1.000000 -0.000004
vn 0.000000 1.000000 -0.000004
vn 1.000000 0.000000 -0.000004
vn 1.000000 0.000000 -0.000004
vn 1.000000 0.000000 -0.000004
vn 1.000000 0.000000 -0.000004
vn 0.000000 -1.000000 -0.000009
vn 0.000000 -1.000000 -0.000009
vn 0.000000 -1.000000 -0.000009
vn 0.000000 -1.000000 -0.000009
vn -0.855248 0.000000 -0.518219
vn -0.855248 0.000000 -0.518219
vn -0.855248 0.000000 -0.518219
vn -0.855248 0.000000 -0.518219
vn 0.000000 1.000000 -0.000010
vn 0.000000 1.000000 -0.000010
vn 0.000000 1.000000 -0.000010
vn 0.000000 1.000000 -0.000010
vn 0.842589 0.000000 -0.538557
vn 0.842589 0.000000 -0.538557
vn 0.842589 0.000000 -0.538557
vn 0.842589 0.000000 -0.538557
vn 0.000000 -1.000000 -0.000011
vn 0.000000 -1.000000 -0.000011
vn 0.000000 -1.000000 -0.000011
vn 0.000000 -1.000000 -0.000011
vn -1.000000 0.000000 -0.000009
vn -1.000000 0.000000 -0.000009
vn -1.000000 0.000000 -0.000009
vn -1.000000 0.000000 -0.000009
vn 0.000000 0.000000 1.000000
vn 0.000000 0.000000 1.000000
vn 0.000000 0.000000 1.000000
vn 0.000000 0.000000 1.000000
vn 0.000000 1.000000 0.000000
vn 0.000000 1.000000 0.000000
vn 0.000000 1.000000 0.000000
vn 0.000000 1.000000 0.000000
vn 0.000000 0.000000 -1.000000
vn 0.000000 0.000000 -1.000000
vn 0.000000 0.000000 -1.000000
vn 0.000000 0.000000 -1.000000
vn 0.000000 -1.000000 0.000000
vn 0.000000 -1.000000 0.000000
vn 0.000000 -1.000000 0.000000
vn 0.000000 -1.000000 0.000000
vn 1.000000 0.000000 0.000000
vn 1.000000 0.000000 0.000000
vn 1.000000 0.000000 0.000000
vn 1.000000 0.000000 0.000000
vn -1.000000 0.000000 0.000000
vn -1.000000 0.000000 0.000000
vn -1.000000 0.000000 0.000000
vn -1.000000 0.000000 0.000000
vn 0.000000 0.000000 -1.000000
vn 0.000000 0.000000 -1.000000
vn 0.000000 0.000000 -1.000000
vn 0.000000 0.000000 -1.000000
vn 0.000000 -1.000000 0.000000
vn 0.000000 -1.000000 0.000000
vn 0.000000 -1.000000 0.000000
vn 0.000000 -1.000000 0.000000
vn 0.000000 0.000000 1.000000
vn 0.000000 0.000000 1.000000
vn 0.000000 0.000000 1.000000
vn 0.000000 0.000000 1.000000
vn 0.000000 1.000000 0.000000
vn 0.000000 1.000000 0.000000
vn 0.000000 1.000000 0.000000
vn 0.000000 1.000000 0.000000
vn 0.000000 1.000000 -0.000004
vn 0.000000 1.000000 -0.000004
vn 0.000000 1.000000 -0.000004
vn 0.000000 1.000000 -0.000004
vn 1.000000 0.000000 -0.000005
vn 1.000000 0.000000 -0.000005
vn 1.000000 0.000000 -0.000005
vn 1.000000 0.000000 -0.000005
vn 0.000000 -1.000000 -0.000009
vn 0.000000 -1.000000 -0.000009
vn 0.000000 -1.000000 -0.000009
vn 0.000000 -1.000000 -0.000009
vn -0.855248 0.000000 -0.518219
vn -0.855248 0.000000 -0.518219
vn -0.855248 0.000000 -0.518219
vn -0.855248 0.000000 -0.518219
vn 0.000000 1.000000 -0.000010
vn 0.000000 1.000000 -0.000010
vn 0.000000 1.000000 -0.000010
vn 0.000000 1.000000 -0.000010
vn 0.842587 0.000000 -0.538560
vn 0.842587 0.000000 -0.538560
vn 0.842587 0.000000 -0.538560
vn 0.842587 0.000000 -0.538560
vn 0.000000 -1.000000 -0.000011
vn 0.000000 -1.000000 -0.000011
vn 0.000000 -1.000000 -0.000011
vn 0.000000 -1.000000 -0.000011
vn -1.000000 0.000000 -0.000004
vn -1.000000 0.000000 -0.000004
vn -1.000000 0.000000 -0.000004
vn -1.000000 0.000000 -0.000004
s off
g Alacena:Alacena
usemtl Alacena:initialShadingGroup
f 1/129/1 2/130/2 4/131/3 3/132/4
f 3/57/5 4/58/6 6/59/7 5/60/8
f 5/133/9 6/134/10 8/135/11 7/136/12
f 7/61/13 8/62/14 2/63/15 1/64/16
f 2/1/17 8/2/18 6/3/19 4/4/20
f 7/5/21 1/6/22 3/7/23 5/8/24
f 9/137/25 10/138/26 12/139/27 11/140/28
f 11/65/29 12/66/30 14/67/31 13/68/32
f 13/141/33 14/142/34 16/143/35 15/144/36
f 15/69/37 16/70/38 10/71/39 9/72/40
f 10/9/41 16/10/42 14/11/43 12/12/44
f 15/13/45 9/14/46 11/15/47 13/16/48
f 17/145/49 18/146/50 20/147/51 19/148/52
f 19/73/53 20/74/54 22/75/55 21/76/56
f 21/149/57 22/150/58 24/151/59 23/152/60
f 23/77/61 24/78/62 18/79/63 17/80/64
f 18/17/65 24/18/66 22/19/67 20/20/68
f 23/21/69 17/22/70 19/23/71 21/24/72
f 25/153/73 26/154/74 28/155/75 27/156/76
f 27/81/77 28/82/78 30/83/79 29/84/80
f 29/157/81 30/158/82 32/159/83 31/160/84
f 31/85/85 32/86/86 26/87/87 25/88/88
f 26/25/89 32/26/90 30/27/91 28/28/92
f 31/29/93 25/30/94 27/31/95 29/32/96
usemtl Alacena:lambert4SG
f 33/161/97 43/162/98 44/163/99 35/164/100
f 35/89/101 44/90/102 41/91/103 37/92/104
f 49/167/105 50/168/106 51/169/107 52/170/108
f 39/99/109 42/100/110 43/101/111 33/102/112
f 34/33/113 40/34/114 38/35/115 36/36/116
f 39/39/117 33/40/118 35/41/119 37/42/120
f 45/173/121 46/175/122 47/176/123 48/174/124
f 43/101/125 42/100/126 40/105/127 34/106/128
f 44/163/129 43/162/130 34/165/131 36/166/132
f 41/91/133 44/90/134 36/93/135 38/94/136
f 41/91/137 38/94/138 46/97/139 45/98/140
f 38/35/141 40/34/142 47/37/143 46/38/144
f 40/105/145 42/100/146 48/107/147 47/108/148
f 42/172/149 41/171/150 45/173/151 48/174/152
f 37/92/153 41/91/154 50/95/155 49/96/156
f 41/171/157 42/172/158 51/169/159 50/168/160
f 42/100/161 39/99/162 52/103/163 51/104/164
f 39/39/165 37/42/166 49/43/167 52/44/168
f 53/177/169 63/178/170 64/179/171 55/180/172
f 55/109/173 64/110/174 61/111/175 57/112/176
f 69/183/177 70/184/178 71/185/179 72/186/180
f 59/119/181 62/120/182 63/121/183 53/122/184
f 54/45/185 60/46/186 58/47/187 56/48/188
f 59/51/189 53/52/190 55/53/191 57/54/192
f 65/189/193 66/191/194 67/192/195 68/190/196
f 63/121/197 62/120/198 60/125/199 54/126/200
f 64/179/201 63/178/202 54/181/203 56/182/204
f 61/111/205 64/110/206 56/113/207 58/114/208
f 61/111/209 58/114/210 66/117/211 65/118/212
f 58/47/213 60/46/214 67/49/215 66/50/216
f 60/125/217 62/120/218 68/127/219 67/128/220
f 62/188/221 61/187/222 65/189/223 68/190/224
f 57/112/225 61/111/226 70/115/227 69/116/228
f 61/187/229 62/188/230 71/185/231 70/184/232
f 62/120/233 59/119/234 72/123/235 71/124/236
f 59/51/237 57/54/238 69/55/239 72/56/240
