# This file uses centimeters as units for non-parametric coordinates.

mtllib Dona.mtl
g default
v 0.384268 -0.000000 -0.384268
v 0.000000 -0.000000 -0.543437
v -0.384268 -0.000000 -0.384268
v -0.543437 -0.000000 0.000000
v -0.384268 -0.000000 0.384268
v 0.000000 -0.000000 0.543437
v 0.384268 -0.000000 0.384268
v 0.543437 -0.000000 0.000000
v 0.571567 0.393383 -0.571567
v -0.000000 0.393383 -0.808318
v -0.571567 0.393383 -0.571567
v -0.808318 0.393383 0.000000
v -0.571567 0.393383 0.571567
v 0.000000 0.393383 0.808318
v 0.571567 0.393383 0.571567
v 0.808318 0.393383 0.000000
v 0.874624 0.243124 -0.874624
v 0.000000 0.243124 -1.236905
v -0.874624 0.243124 -0.874624
v -1.236905 0.243124 0.000000
v -0.874624 0.243124 0.874624
v 0.000000 0.243124 1.236905
v 0.874624 0.243124 0.874624
v 1.236905 0.243124 0.000000
v 0.874624 -0.243124 -0.874624
v 0.000000 -0.243124 -1.236905
v -0.874624 -0.243124 -0.874624
v -1.236905 -0.243124 0.000000
v -0.874624 -0.243124 0.874624
v 0.000000 -0.243124 1.236905
v 0.874624 -0.243124 0.874624
v 1.236905 -0.243124 0.000000
v 0.571567 -0.393383 -0.571567
v -0.000000 -0.393383 -0.808318
v -0.571567 -0.393383 -0.571567
v -0.808318 -0.393383 0.000000
v -0.571567 -0.393383 0.571567
v 0.000000 -0.393383 0.808318
v 0.571567 -0.393383 0.571567
v 0.808318 -0.393383 0.000000
v 0.920417 -0.000000 -0.920417
v 0.471863 -0.243124 -1.139179
v -0.000000 -0.000000 -1.301666
v -0.471863 -0.243124 -1.139179
v -0.920417 -0.000000 -0.920417
v -1.139179 -0.243124 -0.471863
v -1.301666 -0.000000 0.000000
v -1.139179 -0.243124 0.471863
v -0.920417 -0.000000 0.920417
v -0.471863 -0.243124 1.139179
v 0.000000 -0.000000 1.301666
v 0.471863 -0.243124 1.139179
v 0.920417 -0.000000 0.920417
v 1.139179 -0.243124 0.471863
v 1.301666 -0.000000 0.000000
v 1.139179 -0.243124 -0.471863
v 0.737246 -0.384711 -0.737246
v 0.308363 -0.393383 -0.744454
v 0.000000 -0.384711 -1.042624
v -0.308363 -0.393383 -0.744454
v -0.737246 -0.384711 -0.737246
v -0.744454 -0.393383 -0.308363
v -1.042624 -0.384711 -0.000000
v -0.744454 -0.393383 0.308363
v -0.737246 -0.384711 0.737246
v -0.308363 -0.393383 0.744454
v 0.000000 -0.384711 1.042624
v 0.308363 -0.393383 0.744454
v 0.737246 -0.384711 0.737246
v 0.744454 -0.393383 0.308363
v 1.042624 -0.384711 0.000000
v 0.744454 -0.393383 -0.308363
v 0.440870 -0.237764 -0.440870
v 0.000000 -0.237764 -0.623485
v -0.440870 -0.237764 -0.440870
v -0.623485 -0.237764 0.000000
v -0.440870 -0.237764 0.440870
v 0.000000 -0.237764 0.623485
v 0.440870 -0.237764 0.440870
v 0.623485 -0.237764 0.000000
v 0.207314 -0.000000 -0.500501
v 0.440870 0.237764 -0.440870
v 0.308363 0.393383 -0.744454
v 0.000000 0.237764 -0.623485
v -0.207314 -0.000000 -0.500501
v -0.308363 0.393383 -0.744454
v -0.440870 0.237764 -0.440870
v -0.500501 -0.000000 -0.207314
v -0.744454 0.393383 -0.308363
v -0.623485 0.237764 0.000000
v -0.500501 -0.000000 0.207314
v -0.744454 0.393383 0.308363
v -0.440870 0.237764 0.440870
v -0.207314 -0.000000 0.500501
v -0.308363 0.393383 0.744454
v 0.000000 0.237764 0.623485
v 0.207314 -0.000000 0.500501
v 0.308363 0.393383 0.744454
v 0.440871 0.237764 0.440871
v 0.500501 -0.000000 0.207314
v 0.744454 0.393383 0.308363
v 0.623485 0.237764 0.000000
v 0.500501 -0.000000 -0.207314
v 0.744454 0.393383 -0.308363
v 0.737246 0.384710 -0.737246
v 0.471863 0.243124 -1.139179
v -0.000000 0.384710 -1.042624
v -0.471863 0.243124 -1.139179
v -0.737246 0.384710 -0.737246
v -1.139179 0.243124 -0.471863
v -1.042624 0.384710 0.000000
v -1.139179 0.243124 0.471863
v -0.737246 0.384710 0.737246
v -0.471863 0.243124 1.139179
v 0.000000 0.384710 1.042624
v 0.471863 0.243124 1.139179
v 0.737246 0.384710 0.737246
v 1.139179 0.243124 0.471863
v 1.042624 0.384710 0.000000
v 1.139179 0.243124 -0.471863
v 0.237852 0.237764 -0.574224
v -0.237852 0.237764 -0.574224
v -0.574224 0.237764 -0.237852
v -0.574224 0.237764 0.237852
v -0.237852 0.237764 0.574224
v 0.237852 0.237764 0.574224
v 0.574224 0.237764 0.237852
v 0.574224 0.237764 -0.237852
v 0.397748 0.384710 -0.960248
v -0.397748 0.384710 -0.960248
v -0.960248 0.384710 -0.397748
v -0.960248 0.384710 0.397748
v -0.397748 0.384710 0.960248
v 0.397748 0.384710 0.960248
v 0.960248 0.384710 0.397748
v 0.960248 0.384710 -0.397748
v 0.496569 -0.000000 -1.198823
v -0.496569 -0.000000 -1.198823
v -1.198823 -0.000000 -0.496569
v -1.198823 -0.000000 0.496569
v -0.496569 -0.000000 1.198823
v 0.496569 -0.000000 1.198823
v 1.198823 -0.000000 0.496569
v 1.198823 -0.000000 -0.496569
v 0.397748 -0.384710 -0.960247
v -0.397748 -0.384710 -0.960247
v -0.960247 -0.384710 -0.397748
v -0.960247 -0.384710 0.397748
v -0.397748 -0.384710 0.960247
v 0.397748 -0.384710 0.960247
v 0.960248 -0.384710 0.397748
v 0.960248 -0.384710 -0.397748
v 0.237852 -0.237764 -0.574224
v -0.237852 -0.237764 -0.574224
v -0.574224 -0.237764 -0.237852
v -0.574224 -0.237764 0.237852
v -0.237852 -0.237764 0.574224
v 0.237852 -0.237764 0.574224
v 0.574224 -0.237764 0.237852
v 0.574224 -0.237764 -0.237852
vt 0.446386 0.603654
vt 0.446386 0.562998
vt 0.493014 0.557010
vt 0.493014 0.603654
vt 0.399759 0.603654
vt 0.399759 0.557010
vt 0.446386 0.528296
vt 0.493014 0.517196
vt 0.523532 0.543182
vt 0.523532 0.603654
vt 0.446386 0.644310
vt 0.493014 0.650299
vt 0.369241 0.603654
vt 0.369241 0.543182
vt 0.399759 0.517196
vt 0.399759 0.650299
vt 0.446386 0.505502
vt 0.493014 0.491044
vt 0.523532 0.491565
vt 0.523532 0.664127
vt 0.446386 0.679012
vt 0.493014 0.690113
vt 0.369241 0.491565
vt 0.369241 0.664127
vt 0.399759 0.491044
vt 0.399759 0.690113
vt 0.523532 0.715743
vt 0.446386 0.701806
vt 0.493014 0.716264
vt 0.369241 0.715743
vt 0.399759 0.716264
vt 0.606813 0.603654
vt 0.606813 0.562998
vt 0.653440 0.557010
vt 0.653440 0.603654
vt 0.560185 0.603654
vt 0.560185 0.557010
vt 0.606813 0.528296
vt 0.653440 0.517196
vt 0.683958 0.543182
vt 0.683958 0.603654
vt 0.606813 0.644310
vt 0.653440 0.650299
vt 0.529667 0.603654
vt 0.529667 0.543182
vt 0.560185 0.517196
vt 0.560185 0.650299
vt 0.606813 0.505502
vt 0.653440 0.491044
vt 0.683958 0.491565
vt 0.683958 0.664127
vt 0.606813 0.679012
vt 0.653440 0.690113
vt 0.529667 0.491565
vt 0.529667 0.664127
vt 0.560185 0.491044
vt 0.560185 0.690113
vt 0.683958 0.715743
vt 0.606813 0.701806
vt 0.653440 0.716264
vt 0.529667 0.715743
vt 0.560185 0.716264
vt 0.970242 0.726143
vt 0.970242 0.818679
vt 0.922563 0.823524
vt 0.922563 0.726143
vt 0.998008 0.726143
vt 0.998008 0.804145
vt 0.970242 0.897664
vt 0.922563 0.906644
vt 0.874885 0.818679
vt 0.874885 0.726143
vt 0.970242 0.633607
vt 0.922563 0.628762
vt 0.998008 0.648142
vt 0.970242 0.949545
vt 0.922563 0.961242
vt 0.874885 0.897664
vt 0.847118 0.804145
vt 0.847118 0.726143
vt 0.874885 0.633607
vt 0.970242 0.554622
vt 0.922563 0.545642
vt 0.874885 0.949545
vt 0.847118 0.648142
vt 0.874885 0.554622
vt 0.970242 0.502741
vt 0.922563 0.491044
vt 0.874885 0.502741
vt 0.813217 0.726143
vt 0.813217 0.818679
vt 0.765538 0.823524
vt 0.765538 0.726143
vt 0.840983 0.726143
vt 0.840983 0.804145
vt 0.813217 0.897664
vt 0.765538 0.906644
vt 0.717860 0.818679
vt 0.717860 0.726143
vt 0.813217 0.633607
vt 0.765538 0.628762
vt 0.840983 0.648142
vt 0.813217 0.949545
vt 0.765538 0.961242
vt 0.717860 0.897664
vt 0.690094 0.804145
vt 0.690094 0.726143
vt 0.717860 0.633607
vt 0.813217 0.554622
vt 0.765538 0.545642
vt 0.717860 0.949545
vt 0.690094 0.648142
vt 0.717860 0.554622
vt 0.813217 0.502741
vt 0.765538 0.491044
vt 0.717860 0.502741
vt 0.225394 0.403003
vt 0.285867 0.390479
vt 0.303396 0.432798
vt 0.225394 0.448953
vt 0.225394 0.366756
vt 0.272039 0.357096
vt 0.337483 0.356575
vt 0.369974 0.389066
vt 0.317930 0.467888
vt 0.225394 0.487053
vt 0.164922 0.390479
vt 0.147393 0.432798
vt 0.311853 0.330944
vt 0.178750 0.357096
vt 0.371388 0.304958
vt 0.413707 0.322487
vt 0.396915 0.416007
vt 0.132858 0.467888
vt 0.113305 0.356575
vt 0.080814 0.389066
vt 0.138936 0.330944
vt 0.383912 0.244486
vt 0.429861 0.244486
vt 0.448796 0.337022
vt 0.053873 0.416007
vt 0.079401 0.304958
vt 0.037082 0.322487
vt 0.371388 0.184013
vt 0.413707 0.166484
vt 0.001992 0.337022
vt 0.066877 0.244486
vt 0.020927 0.244486
vt 0.337483 0.132397
vt 0.369974 0.099906
vt 0.079401 0.184013
vt 0.037082 0.166484
vt 0.285867 0.098492
vt 0.303396 0.056173
vt 0.396915 0.072965
vt 0.448796 0.151950
vt 0.113305 0.132397
vt 0.080814 0.099906
vt 0.311853 0.158027
vt 0.272039 0.131876
vt 0.225394 0.085968
vt 0.225394 0.040019
vt 0.317930 0.021084
vt 0.001992 0.151950
vt 0.053873 0.072965
vt 0.164922 0.098492
vt 0.147393 0.056173
vt 0.225394 0.122215
vt 0.225394 0.001919
vt 0.132858 0.021084
vt 0.178750 0.131876
vt 0.138936 0.158027
vt 0.772231 0.021084
vt 0.851216 0.072965
vt 0.824275 0.099906
vt 0.757697 0.056173
vt 0.903097 0.151950
vt 0.868007 0.166484
vt 0.791784 0.132397
vt 0.740167 0.098492
vt 0.679695 0.001919
vt 0.679695 0.040019
vt 0.825689 0.184013
vt 0.766153 0.158027
vt 0.726340 0.131876
vt 0.679695 0.085968
vt 0.587159 0.021084
vt 0.601694 0.056173
vt 0.884162 0.244486
vt 0.838213 0.244486
vt 0.679695 0.122215
vt 0.619223 0.098492
vt 0.508174 0.072965
vt 0.535115 0.099906
vt 0.868007 0.322487
vt 0.825689 0.304958
vt 0.633050 0.131876
vt 0.567606 0.132397
vt 0.456293 0.151950
vt 0.491383 0.166484
vt 0.824275 0.389066
vt 0.791784 0.356575
vt 0.593237 0.158027
vt 0.533702 0.184013
vt 0.903097 0.337022
vt 0.851216 0.416007
vt 0.757697 0.432798
vt 0.740167 0.390479
vt 0.475228 0.244486
vt 0.521177 0.244486
vt 0.772231 0.467888
vt 0.679695 0.448953
vt 0.679695 0.403003
vt 0.726340 0.357096
vt 0.766153 0.330944
vt 0.491383 0.322487
vt 0.533702 0.304958
vt 0.679695 0.487053
vt 0.601694 0.432798
vt 0.619223 0.390479
vt 0.679695 0.366756
vt 0.535115 0.389066
vt 0.567606 0.356575
vt 0.587159 0.467888
vt 0.633050 0.357096
vt 0.508174 0.416007
vt 0.456293 0.337022
vt 0.593237 0.330944
vt 0.113493 0.537689
vt 0.113493 0.497033
vt 0.160121 0.491044
vt 0.160121 0.537689
vt 0.066866 0.537689
vt 0.066866 0.491044
vt 0.113493 0.578345
vt 0.160121 0.584333
vt 0.066866 0.584333
vt 0.048620 0.634970
vt 0.048620 0.675626
vt 0.001992 0.681614
vt 0.001992 0.634970
vt 0.095247 0.634970
vt 0.095247 0.681614
vt 0.048620 0.594314
vt 0.001992 0.588325
vt 0.095247 0.588325
vt 0.267748 0.588425
vt 0.267748 0.495889
vt 0.315427 0.491044
vt 0.315427 0.588425
vt 0.363105 0.495889
vt 0.363105 0.588425
vt 0.267748 0.680962
vt 0.315427 0.685806
vt 0.363105 0.680962
vt 0.261613 0.588425
vt 0.261613 0.680962
vt 0.213934 0.685807
vt 0.213934 0.588425
vt 0.166256 0.680962
vt 0.166256 0.588425
vt 0.261613 0.495889
vt 0.213934 0.491044
vt 0.166256 0.495889
vn 0.000000 0.000000 1.000000
vn -0.382683 0.000000 0.923880
vn -0.307604 0.594889 0.742622
vn -0.000000 0.597237 0.802065
vn -0.707107 0.000000 0.707107
vn -0.567145 0.597237 0.567145
vn -0.171919 0.969994 0.171919
vn -0.094500 0.969031 0.228143
vn 0.000000 0.969994 0.243130
vn 0.707107 0.000000 0.707107
vn 0.382683 0.000000 0.923880
vn 0.307604 0.594889 0.742622
vn 0.567145 0.597237 0.567145
vn 0.094500 0.969031 0.228143
vn 0.171919 0.969994 0.171919
vn 1.000000 0.000000 -0.000000
vn 0.923880 0.000000 0.382683
vn 0.742622 0.594889 0.307604
vn 0.802065 0.597237 0.000000
vn 0.228143 0.969031 0.094500
vn 0.243130 0.969994 -0.000000
vn 0.707107 0.000000 -0.707107
vn 0.923880 0.000000 -0.382683
vn 0.742622 0.594889 -0.307604
vn 0.567145 0.597237 -0.567145
vn 0.228143 0.969031 -0.094500
vn 0.171919 0.969994 -0.171919
vn 0.000000 0.000000 -1.000000
vn 0.382683 0.000000 -0.923880
vn 0.307604 0.594889 -0.742622
vn 0.000000 0.597237 -0.802065
vn 0.094500 0.969031 -0.228143
vn 0.000000 0.969994 -0.243130
vn -0.707107 0.000000 -0.707107
vn -0.382683 0.000000 -0.923880
vn -0.307604 0.594889 -0.742622
vn -0.567145 0.597237 -0.567145
vn -0.094500 0.969031 -0.228143
vn -0.171919 0.969994 -0.171919
vn -1.000000 0.000000 0.000000
vn -0.923880 0.000000 -0.382684
vn -0.742622 0.594889 -0.307604
vn -0.802065 0.597237 0.000000
vn -0.228143 0.969031 -0.094500
vn -0.243130 0.969994 0.000000
vn -0.923879 0.000000 0.382684
vn -0.742622 0.594889 0.307604
vn -0.228143 0.969031 0.094500
vn 0.149890 0.920101 -0.361865
vn 0.000000 0.919478 -0.393142
vn 0.277993 0.919478 -0.277993
vn 0.603349 0.521479 -0.603349
vn 0.326408 0.522001 -0.788019
vn 0.000000 0.521479 -0.853264
vn -0.149890 0.920101 -0.361865
vn -0.277993 0.919478 -0.277993
vn -0.326408 0.522001 -0.788019
vn -0.603349 0.521479 -0.603349
vn -0.361865 0.920101 -0.149890
vn -0.393142 0.919478 0.000000
vn -0.788019 0.522001 -0.326408
vn -0.853264 0.521479 -0.000000
vn -0.361865 0.920101 0.149890
vn -0.277993 0.919478 0.277993
vn -0.788019 0.522001 0.326408
vn -0.603349 0.521479 0.603349
vn -0.149890 0.920101 0.361865
vn -0.000000 0.919478 0.393142
vn -0.326408 0.522001 0.788019
vn 0.000000 0.521479 0.853264
vn 0.149890 0.920101 0.361865
vn 0.277993 0.919478 0.277993
vn 0.326408 0.522001 0.788019
vn 0.603349 0.521479 0.603349
vn 0.361865 0.920101 0.149890
vn 0.393142 0.919478 -0.000000
vn 0.788019 0.522001 0.326408
vn 0.853264 0.521479 -0.000000
vn 0.361865 0.920101 -0.149890
vn 0.788018 0.522001 -0.326408
vn 0.382683 -0.000000 -0.923880
vn 0.000000 -0.000000 -1.000000
vn 0.707107 -0.000000 -0.707107
vn 0.603349 -0.521479 -0.603349
vn 0.326408 -0.522001 -0.788018
vn 0.000000 -0.521479 -0.853264
vn -0.382683 -0.000000 -0.923880
vn -0.707107 -0.000000 -0.707107
vn -0.326408 -0.522001 -0.788019
vn -0.603349 -0.521479 -0.603349
vn -0.923880 0.000000 -0.382683
vn -1.000000 -0.000000 -0.000000
vn -0.788019 -0.522001 -0.326408
vn -0.853264 -0.521479 -0.000000
vn -0.923880 -0.000000 0.382683
vn -0.707107 -0.000000 0.707107
vn -0.788019 -0.522001 0.326408
vn -0.603349 -0.521479 0.603349
vn -0.382683 -0.000000 0.923880
vn -0.000000 -0.000000 1.000000
vn -0.326408 -0.522001 0.788019
vn -0.000000 -0.521479 0.853264
vn 0.382683 -0.000000 0.923880
vn 0.707107 -0.000000 0.707107
vn 0.326408 -0.522001 0.788019
vn 0.603349 -0.521479 0.603349
vn 0.923880 -0.000000 0.382683
vn 1.000000 -0.000000 -0.000000
vn 0.788018 -0.522001 0.326408
vn 0.853264 -0.521479 -0.000000
vn 0.923880 -0.000000 -0.382683
vn 0.788018 -0.522001 -0.326408
vn 0.149889 -0.920101 -0.361865
vn -0.000000 -0.919478 -0.393142
vn 0.277993 -0.919478 -0.277993
vn -0.171919 -0.969994 0.171919
vn -0.094500 -0.969031 0.228144
vn 0.000000 -0.969994 0.243130
vn -0.149890 -0.920101 -0.361865
vn -0.277993 -0.919478 -0.277993
vn 0.094500 -0.969031 0.228143
vn 0.171919 -0.969994 0.171919
vn -0.361865 -0.920102 -0.149890
vn -0.393142 -0.919478 -0.000000
vn 0.228144 -0.969031 0.094500
vn 0.243130 -0.969994 0.000000
vn -0.361865 -0.920101 0.149890
vn -0.277993 -0.919478 0.277993
vn 0.228144 -0.969031 -0.094500
vn 0.171919 -0.969994 -0.171919
vn -0.149890 -0.920101 0.361865
vn 0.000000 -0.919478 0.393142
vn 0.094500 -0.969031 -0.228143
vn -0.000000 -0.969994 -0.243130
vn 0.149890 -0.920101 0.361865
vn 0.277993 -0.919478 0.277993
vn -0.094500 -0.969031 -0.228143
vn -0.171919 -0.969994 -0.171919
vn 0.361865 -0.920101 0.149890
vn 0.393141 -0.919478 -0.000000
vn -0.228144 -0.969031 -0.094500
vn -0.243130 -0.969994 0.000000
vn 0.361865 -0.920101 -0.149890
vn -0.228143 -0.969031 0.094500
vn -0.307604 -0.594889 0.742622
vn 0.000000 -0.597237 0.802065
vn -0.567145 -0.597237 0.567146
vn 0.307604 -0.594889 0.742622
vn 0.567146 -0.597237 0.567146
vn 0.742622 -0.594888 0.307604
vn 0.802065 -0.597237 0.000000
vn 0.742622 -0.594888 -0.307604
vn 0.567146 -0.597237 -0.567146
vn 0.307604 -0.594889 -0.742622
vn -0.000000 -0.597237 -0.802065
vn -0.307604 -0.594889 -0.742622
vn -0.567146 -0.597237 -0.567146
vn -0.742622 -0.594888 -0.307604
vn -0.802065 -0.597237 0.000000
vn -0.742622 -0.594889 0.307604
s 1
g pTorus1
usemtl initialShadingGroup
f 2/229/1 81/230/2 121/231/3 84/232/4
f 81/59/2 1/52/5 82/53/6 121/60/3
f 121/122/3 82/129/6 9/123/7 83/118/8
f 84/121/4 121/122/3 83/118/8 10/117/9
f 3/7/10 85/17/11 122/18/12 87/8/13
f 85/235/11 2/229/1 84/232/4 122/236/12
f 122/130/12 84/121/4 10/117/9 86/127/14
f 87/137/13 122/130/12 86/127/14 11/135/15
f 4/1/16 88/2/17 123/3/18 90/4/19
f 88/2/17 3/7/10 87/8/13 123/3/18
f 123/3/18 87/8/13 11/19/15 89/9/20
f 90/4/19 123/3/18 89/9/20 12/10/21
f 5/21/22 91/11/23 124/12/24 93/22/25
f 91/11/23 4/1/16 90/4/19 124/12/24
f 124/12/24 90/4/19 12/10/21 92/20/26
f 93/22/25 124/12/24 92/20/26 13/27/27
f 6/238/28 94/239/29 125/240/30 96/241/31
f 94/28/29 5/21/22 93/22/25 125/29/30
f 125/171/30 93/172/25 13/157/27 95/166/32
f 96/168/31 125/171/30 95/166/32 14/161/33
f 7/38/34 97/48/35 126/49/36 99/39/37
f 97/244/35 6/238/28 96/241/31 126/245/36
f 126/160/36 96/168/31 14/161/33 98/153/38
f 99/159/37 126/160/36 98/153/38 15/149/39
f 8/32/40 100/33/41 127/34/42 102/35/43
f 100/33/41 7/38/34 99/39/37 127/34/42
f 127/34/42 99/39/37 15/50/39 101/40/44
f 102/35/43 127/34/42 101/40/44 16/41/45
f 1/52/5 103/42/46 128/43/47 82/53/6
f 103/42/46 8/32/40 102/35/43 128/43/47
f 128/43/47 102/35/43 16/41/45 104/51/48
f 82/53/6 128/43/47 104/51/48 9/58/7
f 10/117/9 83/118/8 129/119/49 107/120/50
f 83/118/8 9/123/7 105/124/51 129/119/49
f 129/119/49 105/124/51 17/133/52 106/125/53
f 107/120/50 129/119/49 106/125/53 18/126/54
f 11/135/15 86/127/14 130/128/55 109/136/56
f 86/127/14 10/117/9 107/120/50 130/128/55
f 130/128/55 107/120/50 18/126/54 108/134/57
f 109/136/56 130/128/55 108/134/57 19/141/58
f 12/147/21 89/142/20 131/143/59 111/148/60
f 89/142/20 11/135/15 109/136/56 131/143/59
f 131/143/59 109/136/56 19/141/58 110/146/61
f 111/67/60 131/68/59 110/64/61 20/63/62
f 13/157/27 92/151/26 132/152/63 113/158/64
f 92/151/26 12/147/21 111/148/60 132/152/63
f 132/75/63 111/67/60 20/63/62 112/73/65
f 113/158/64 132/152/63 112/164/65 21/165/66
f 14/161/33 95/166/32 133/167/67 115/162/68
f 95/166/32 13/157/27 113/158/64 133/167/67
f 133/167/67 113/158/64 21/165/66 114/170/69
f 115/162/68 133/167/67 114/170/69 22/169/70
f 15/149/39 98/153/38 134/154/71 117/150/72
f 98/153/38 14/161/33 115/162/68 134/154/71
f 134/154/71 115/162/68 22/169/70 116/163/73
f 117/150/72 134/154/71 116/163/73 23/155/74
f 16/138/45 101/144/44 135/145/75 119/139/76
f 101/144/44 15/149/39 117/150/72 135/145/75
f 135/145/75 117/150/72 23/155/74 118/156/77
f 119/94/76 135/95/75 118/91/77 24/90/78
f 9/123/7 104/131/48 136/132/79 105/124/51
f 104/131/48 16/138/45 119/139/76 136/132/79
f 136/102/79 119/94/76 24/90/78 120/100/80
f 105/124/51 136/132/79 120/140/80 17/133/52
f 18/247/54 106/248/53 137/249/81 43/250/82
f 106/114/53 17/109/52 41/110/83 137/115/81
f 137/115/81 41/110/83 25/113/84 42/116/85
f 43/250/82 137/249/81 42/251/85 26/252/86
f 19/69/58 108/76/57 138/77/87 45/70/88
f 108/253/57 18/247/54 43/250/82 138/254/87
f 138/254/87 43/250/82 26/252/86 44/255/89
f 45/70/88 138/77/87 44/84/89 27/78/90
f 20/63/62 110/64/61 139/65/91 47/66/92
f 110/64/61 19/69/58 45/70/88 139/65/91
f 139/65/91 45/70/88 27/78/90 46/71/93
f 47/66/92 139/65/91 46/71/93 28/72/94
f 21/82/66 112/73/65 140/74/95 49/83/96
f 112/73/65 20/63/62 47/66/92 140/74/95
f 140/74/95 47/66/92 28/72/94 48/81/97
f 49/83/96 140/74/95 48/81/97 29/86/98
f 22/256/70 114/257/69 141/258/99 51/259/100
f 114/87/69 21/82/66 49/83/96 141/88/99
f 141/88/99 49/83/96 29/86/98 50/89/101
f 51/259/100 141/258/99 50/260/101 30/261/102
f 23/96/74 116/103/73 142/104/103 53/97/104
f 116/262/73 22/256/70 51/259/100 142/263/103
f 142/263/103 51/259/100 30/261/102 52/264/105
f 53/97/104 142/104/103 52/111/105 31/105/106
f 24/90/78 118/91/77 143/92/107 55/93/108
f 118/91/77 23/96/74 53/97/104 143/92/107
f 143/92/107 53/97/104 31/105/106 54/98/109
f 55/93/108 143/92/107 54/98/109 32/99/110
f 17/109/52 120/100/80 144/101/111 41/110/83
f 120/100/80 24/90/78 55/93/108 144/101/111
f 144/101/111 55/93/108 32/99/110 56/108/112
f 41/110/83 144/101/111 56/108/112 25/113/84
f 26/181/86 42/173/85 145/176/113 59/182/114
f 42/173/85 25/174/84 57/175/115 145/176/113
f 145/176/113 57/175/115 33/179/116 58/180/117
f 59/182/114 145/176/113 58/180/117 34/186/118
f 27/193/90 44/187/89 146/188/119 61/194/120
f 44/187/89 26/181/86 59/182/114 146/188/119
f 146/188/119 59/182/114 34/186/118 60/192/121
f 61/194/120 146/188/119 60/192/121 35/198/122
f 28/72/94 46/71/93 147/79/123 63/80/124
f 46/199/93 27/193/90 61/194/120 147/200/123
f 147/200/123 61/194/120 35/198/122 62/204/125
f 63/209/124 147/200/123 62/204/125 36/210/126
f 29/226/98 48/227/97 148/216/127 65/222/128
f 48/81/97 28/72/94 63/80/124 148/85/127
f 148/216/127 63/209/124 36/210/126 64/217/129
f 65/222/128 148/216/127 64/217/129 37/223/130
f 30/218/102 50/224/101 149/219/131 67/212/132
f 50/224/101 29/226/98 65/222/128 149/219/131
f 149/219/131 65/222/128 37/223/130 66/220/133
f 67/212/132 149/219/131 66/220/133 38/213/134
f 31/206/106 52/211/105 150/207/135 69/201/136
f 52/211/105 30/218/102 67/212/132 150/207/135
f 150/207/135 67/212/132 38/213/134 68/208/137
f 69/201/136 150/207/135 68/208/137 39/202/138
f 32/99/110 54/98/109 151/106/139 71/107/140
f 54/205/109 31/206/106 69/201/136 151/195/139
f 151/195/139 69/201/136 39/202/138 70/196/141
f 71/189/140 151/195/139 70/196/141 40/190/142
f 25/174/84 56/177/112 152/178/143 57/175/115
f 56/108/112 32/99/110 71/107/140 152/112/143
f 152/178/143 71/189/140 40/190/142 72/183/144
f 57/175/115 152/178/143 72/183/144 33/179/116
f 34/186/118 58/180/117 153/185/145 74/191/146
f 58/180/117 33/179/116 73/184/147 153/185/145
f 153/62/145 73/57/147 1/52/5 81/59/2
f 74/233/146 153/234/145 81/230/2 2/229/1
f 35/198/122 60/192/121 154/197/148 75/203/149
f 60/192/121 34/186/118 74/191/146 154/197/148
f 154/237/148 74/233/146 2/229/1 85/235/11
f 75/15/149 154/25/148 85/17/11 3/7/10
f 36/13/126 62/14/125 155/6/150 76/5/151
f 62/14/125 35/23/122 75/15/149 155/6/150
f 155/6/150 75/15/149 3/7/10 88/2/17
f 76/5/151 155/6/150 88/2/17 4/1/16
f 37/30/130 64/24/129 156/16/152 77/26/153
f 64/24/129 36/13/126 76/5/151 156/16/152
f 156/16/152 76/5/151 4/1/16 91/11/23
f 77/26/153 156/16/152 91/11/23 5/21/22
f 38/213/134 66/220/133 157/225/154 78/221/155
f 66/220/133 37/223/130 77/228/153 157/225/154
f 157/31/154 77/26/153 5/21/22 94/28/29
f 78/242/155 157/243/154 94/239/29 6/238/28
f 39/202/138 68/208/137 158/214/156 79/215/157
f 68/208/137 38/213/134 78/221/155 158/214/156
f 158/246/156 78/242/155 6/238/28 97/244/35
f 79/46/157 158/56/156 97/48/35 7/38/34
f 40/44/142 70/45/141 159/37/158 80/36/159
f 70/45/141 39/54/138 79/46/157 159/37/158
f 159/37/158 79/46/157 7/38/34 100/33/41
f 80/36/159 159/37/158 100/33/41 8/32/40
f 33/61/116 72/55/144 160/47/160 73/57/147
f 72/55/144 40/44/142 80/36/159 160/47/160
f 160/47/160 80/36/159 8/32/40 103/42/46
f 73/57/147 160/47/160 103/42/46 1/52/5
